# xmcd CD database file
#
# Track frame offsets:
#	150
#	12683
#	26201
#	38389
#	52957
#	65052
#	78955
#	92421
#	105151
#	117447
#	129782
#	140798
#	156336
#	170236
#	182002
#	193182
#	206988
#	221581
#
# Disc length: 3123 seconds
#
# Revision: 2
# Processed by: cddbd v1.5.2PL0 Copyright (c) Steve Scherf et al.
# Submitted via: CDex 1.51
#
DISCID=030c3112
DTITLE=Sam Taylor - Saxphone 8 波麗唱片
DYEAR=2000
DGENRE=Jazz
TTITLE0=執著的愛
TTITLE1=幾時再回頭
TTITLE2=新宿之女人
TTITLE3=愛的化石
TTITLE4=長崎今天還是下著雨
TTITLE5=國際線的候機室
TTITLE6=港都布魯斯
TTITLE7=獨睡的搖兒歌
TTITLE8=釧路之夜
TTITLE9=現在是否幸福
TTITLE10=花與淚
TTITLE11=深夜到黎明
TTITLE12=年長的小姐
TTITLE13=淡水河邊
TTITLE14=北國之街
TTITLE15=只要是幸福
TTITLE16=花與蝴蝶
TTITLE17=夜晚的柳瀨
EXTD=YEAR: 2000
EXTT0=
EXTT1=
EXTT2=
EXTT3=
EXTT4=
EXTT5=
EXTT6=
EXTT7=
EXTT8=
EXTT9=
EXTT10=
EXTT11=
EXTT12=
EXTT13=
EXTT14=
EXTT15=
EXTT16=
EXTT17=
PLAYORDER=
